<svg id="Layer_1" data-name="Layer 1" xmlns="http://www.w3.org/2000/svg" viewBox="0 0 315 366"><defs><style>.cls-1{fill:#ed1c24;}.cls-2{fill:#fff;}.cls-3{fill:#2e3192;}.cls-4{fill:#f53638;}</style></defs><title>KITT_dude</title><path class="cls-1" d="M222.52,319.66c-3-2.57-29.51,1.16-29.51,1.16.63-7.18-3.63-28.42-5.28-36.27a14.65,14.65,0,0,0,6.2-6.8c1.59-3.8,1.91-8.7,1.46-14.05,6-5.24,22.65-20.67,19.19-26.25s-22.43-11.75-30.66-13.52c-1.2-2.82-2.07-4.69-2.3-5.19,22.11-2.61,42-5.4,44.35-7.05,5.21-3.7,11.8-76.4,8-81.31-1.64-2.13-50.25-8.86-83.48-13.07l-2.69-45.67c4.91-1.89,8.52-5.88,9.11-10.86.9-7.64-5.62-14.69-14.56-15.75S125.46,49.31,124.56,57c-.86,7.26,5,14,13.24,15.53l8.33,44.27c-14-1.75-24.47-2.94-26-3-5.18-.09-45.13,12.78-47,15.19-1.77,10.7,3.07,87.66,8.85,92s43.75,3.58,51.49,2.86c-.06.9-.12,1.86-.19,2.87-8.82,1.72-35.89,7.57-44.22,16.32-5.7,6,34,24.84,44.23,28a1.59,1.59,0,0,0,.43.06,34.13,34.13,0,0,0,1.11,4.64,11.47,11.47,0,0,0,3.31,4.83,232.74,232.74,0,0,1-18.9,37.14c-14.16.95-22.18,5.37-24.07,7.2-2.11,2-3.74,9.89-3.74,9.89h54.14s1.52-7.17,0-10c0,0-1.87-3.1-7.78-5.27,2.12-5.94,7.54-22.15,8.35-34.22A59.56,59.56,0,0,0,178.52,288c3.87,25.42-7.15,46.8-7.15,46.8h58.39C229.52,332.73,225.55,322.22,222.52,319.66ZM202.9,239.32c1.24,1.41-6.69,6.05-10.61,8.22-1.48-5.39-3.28-10.63-5-15.13C192.72,234.46,201.76,238,202.9,239.32Zm-92,4.9a89.48,89.48,0,0,1,21.94-9c-.23,5-.39,10.55-.38,16C116.93,249.91,110.89,244.22,110.89,244.22Z"/><path class="cls-2" d="M98.35,157.29s9.88,40.05,17.88,42.43,38.15,3,42.38-5.5S170.8,158.41,163,153.7,115.83,136.89,98.35,157.29Z"/><path class="cls-2" d="M242.39,167.79s-13.88,34.63-20.91,35.73-32.37-2.18-34.72-10.35-5.19-33.65,2-36.87S230.61,147.26,242.39,167.79Z"/><path class="cls-3" d="M110.15,169.2c-11.21.49-51.61,13.8-56,18.59s-2.57,14.32-.58,15.25c1.24.58,9.75-2.76,11-3.78s2.46-4.93,4.79-7.5c7.47-4.32,35.26-14.24,43.15-15.41S121.36,168.71,110.15,169.2Z"/><path class="cls-3" d="M133.89,203.57c-7.43.18-14.13-.3-18.39-1.33-9.72-2.34-24.55-44.72-20.71-48.8,6.07-6.46,24-11,37.12-11.36,9.58-.24,28.66,1.69,37.8,10.8,4,4-3,36-10.39,45.43C155.43,203.22,133.89,203.57,133.89,203.57Zm-30.45-45.82c-.72,3.67,6.54,37.44,13.76,39.87s32.72,1,37.52-2.24,7.91-33.41,6.35-37.29c-4.74-4.86-15.52-7.56-28.94-7.23C118.39,151.2,107,154.57,103.44,157.75Z"/><path class="cls-3" d="M103.89,147.82s-16.3,5.59-20.69,10.71c0,0,1.16,7.29,3.62,8.2s11.28-2.48,11.28-2.48Z"/><path class="cls-3" d="M185.6,196.74c-4.91-9.38-6.22-39-2.34-42,8.93-7,25.17-6.28,33.16-4.84,11,2,25.32,8.36,29.5,14.93,2.64,4.15-15.72,40.23-24.18,41.09a61.87,61.87,0,0,1-15.58-1.17S188.17,201.64,185.6,196.74Zm29.41-39c-11.19-2-20.59-1-25.24,2.78-1.85,3.27-3.48,30.74.09,34.23s24.72,8,31.11,6.8,17.18-30.58,17.1-34C235.53,164.24,226.47,159.76,215,157.7Z"/><path class="cls-3" d="M239.08,158.58s12.87,7.11,15.83,12.25c0,0-2,6.38-4.18,6.89s-9.11-3.66-9.11-3.66Z"/><path class="cls-3" d="M163.5,184.74c.47,0,10.4-10.33,21.8,1.4l-1.1-12.59s-7.34-9.18-19.08,0Z"/><path class="cls-4" d="M72.07,24.16a145.79,145.79,0,0,1,.2,19.13S89.58,51.48,98.52,56.8L100,47.26A160.74,160.74,0,0,1,115,61c-4-8.35-9.92-20-20.71-29.08a102,102,0,0,1-1.6,11.22C84.29,32.63,72.07,24.16,72.07,24.16Z"/></svg>